<svg width="1920" height="1011" viewBox="0 0 1920 1011" fill="none" xmlns="http://www.w3.org/2000/svg">
<g clip-path="url(#clip0_181_3065)">
<rect width="1947" height="860" transform="translate(-14 151)" fill="white"/>
<mask id="mask0_181_3065" style="mask-type:alpha" maskUnits="userSpaceOnUse" x="-14" y="151" width="1947" height="860">
<rect x="-14" y="151" width="1947" height="860" fill="url(#paint0_linear_181_3065)"/>
</mask>
<g mask="url(#mask0_181_3065)">
<path d="M1933.06 987.011H1923.95L1899.24 1036.19H1933.06V987.011Z" fill="#F5FAFF"/>
<path d="M1795.83 1036.19H1899.24L1923.95 987.011H1821.2L1795.83 1036.19Z" fill="#EBF6FF"/>
<path d="M1693.07 1036.19H1795.83L1821.19 987.011H1717.79L1693.07 1036.19Z" fill="#F2F9FF"/>
<path d="M1590.32 1036.19H1693.08L1717.79 987.011H1615.03L1590.32 1036.19Z" fill="#F5F9FF"/>
<path d="M1486.91 1036.19H1590.32L1615.03 987.011H1512.28L1486.91 1036.19Z" fill="#F4FAFF"/>
<path d="M1384.16 1036.19H1486.92L1512.28 987.011H1408.87L1384.16 1036.19Z" fill="#FBFEFF"/>
<path d="M1281.4 1036.19H1384.16L1408.87 987.011H1306.12L1281.4 1036.19Z" fill="#FDFFFF"/>
<path d="M1178 1036.19H1281.4L1306.12 987.011H1203.36L1178 1036.19Z" fill="#FDFFFF"/>
<path d="M1075.24 1036.19H1178L1203.36 987.011H1099.96L1075.24 1036.19Z" fill="#F4F9FF"/>
<path d="M972.484 1036.19H1075.24L1099.95 987.011H997.198L972.484 1036.19Z" fill="#F4F9FF"/>
<path d="M869.082 1036.19H972.488L997.201 987.011H894.446L869.082 1036.19Z" fill="#E0EEFF"/>
<path d="M766.324 1036.19H869.08L894.443 987.011H791.038L766.324 1036.19Z" fill="#F3F8FF"/>
<path d="M663.57 1036.19H766.326L791.039 987.011H688.284L663.57 1036.19Z" fill="#EAF2FF"/>
<path d="M560.164 1036.19H663.57L688.283 987.011H585.528L560.164 1036.19Z" fill="#E4EEFF"/>
<path d="M457.406 1036.19H560.162L585.526 987.011H482.12L457.406 1036.19Z" fill="#D8E5FF"/>
<path d="M354.652 1036.19H457.408L482.121 987.011H379.366L354.652 1036.19Z" fill="#D4E3FF"/>
<path d="M251.246 1036.19H354.652L379.365 987.011H276.61L251.246 1036.19Z" fill="#D6E4FF"/>
<path d="M148.488 1036.19H251.244L276.608 987.011H173.202L148.488 1036.19Z" fill="#D5E4FF"/>
<path d="M45.7344 1036.19H148.49L173.203 987.011H70.4477L45.7344 1036.19Z" fill="#DDE6FF"/>
<path d="M-18 987.011V1036.19H45.7345L70.4479 987.011H-18Z" fill="#D4E4FF"/>
<path d="M1933.06 937.833H1845.91L1821.2 987.01H1923.95L1933.06 968.861V937.833Z" fill="#EBF6FF"/>
<path d="M1717.79 987.01H1821.2L1845.91 937.833H1743.15L1717.79 987.01Z" fill="#E9F7FF"/>
<path d="M1615.04 987.01H1717.79L1743.15 937.833H1639.75L1615.04 987.01Z" fill="#F2F9FF"/>
<path d="M1512.28 987.01H1615.03L1639.75 937.833H1536.99L1512.28 987.01Z" fill="#EEF7FF"/>
<path d="M1408.87 987.01H1512.28L1536.99 937.833H1434.23L1408.87 987.01Z" fill="#F9FCFF"/>
<path d="M1306.12 987.01H1408.87L1434.24 937.833H1330.83L1306.12 987.01Z" fill="#FDFFFF"/>
<path d="M1203.36 987.01H1306.11L1330.83 937.833H1228.07L1203.36 987.01Z" fill="#FAFCFF"/>
<path d="M1099.95 987.01H1203.36L1228.07 937.833H1125.32L1099.95 987.01Z" fill="#F2F9FF"/>
<path d="M997.199 987.01H1099.95L1125.32 937.833H1021.91L997.199 987.01Z" fill="#DFEFFF"/>
<path d="M894.445 987.01H997.201L1021.91 937.833H919.159L894.445 987.01Z" fill="#EFF6FF"/>
<path d="M791.039 987.01H894.445L919.158 937.833H816.403L791.039 987.01Z" fill="#F3F9FF"/>
<path d="M688.281 987.01H791.037L816.401 937.833H712.995L688.281 987.01Z" fill="#E7F3FF"/>
<path d="M585.527 987.01H688.283L712.996 937.833H610.241L585.527 987.01Z" fill="#E5EEFF"/>
<path d="M482.121 987.01H585.527L610.24 937.833H507.485L482.121 987.01Z" fill="#D8E5FF"/>
<path d="M379.363 987.01H482.119L507.483 937.833H404.077L379.363 987.01Z" fill="#CFDEFF"/>
<path d="M276.609 987.01H379.365L404.078 937.833H301.323L276.609 987.01Z" fill="#D5E4FF"/>
<path d="M173.203 987.01H276.609L301.322 937.833H198.567L173.203 987.01Z" fill="#D2E2FF"/>
<path d="M70.4492 987.01H173.205L198.569 937.833H95.1626L70.4492 987.01Z" fill="#CCDDFF"/>
<path d="M-7.59437 937.833L-18 958.323V987.01H70.4479L95.1612 937.833H-7.59437Z" fill="#C7D9FF"/>
<path d="M1933.06 888.656H1870.62L1845.91 937.833H1933.06V888.656Z" fill="#E3F3FF"/>
<path d="M1743.15 937.833H1845.91L1870.62 888.656H1767.87L1743.15 937.833Z" fill="#EAF6FF"/>
<path d="M1639.75 937.833H1743.15L1767.87 888.656H1665.11L1639.75 937.833Z" fill="#F3F8FF"/>
<path d="M1536.99 937.833H1639.75L1665.11 888.656H1561.71L1536.99 937.833Z" fill="#F4FCFF"/>
<path d="M1434.23 937.833H1536.99L1561.7 888.656H1458.95L1434.23 937.833Z" fill="#F9FBFF"/>
<path d="M1330.83 937.833H1434.23L1458.95 888.656H1356.19L1330.83 937.833Z" fill="#F9FDFF"/>
<path d="M1228.07 937.833H1330.83L1356.19 888.656H1252.79L1228.07 937.833Z" fill="#FAFAFF"/>
<path d="M1125.32 937.833H1228.08L1252.79 888.656H1150.03L1125.32 937.833Z" fill="#E2EAFF"/>
<path d="M1021.91 937.833H1125.32L1150.03 888.656H1047.28L1021.91 937.833Z" fill="#D6E6FF"/>
<path d="M919.156 937.833H1021.91L1047.28 888.656H943.87L919.156 937.833Z" fill="#EBF6FF"/>
<path d="M816.402 937.833H919.158L943.871 888.656H841.116L816.402 937.833Z" fill="#E5F0FF"/>
<path d="M712.996 937.833H816.402L841.115 888.656H738.36L712.996 937.833Z" fill="#CEDFFF"/>
<path d="M610.238 937.833H712.994L738.358 888.656H634.952L610.238 937.833Z" fill="#DAE6FF"/>
<path d="M507.484 937.833H610.24L634.953 888.656H532.198L507.484 937.833Z" fill="#D6E4FF"/>
<path d="M404.078 937.833H507.484L532.197 888.656H429.442L404.078 937.833Z" fill="#CCDBFF"/>
<path d="M301.324 937.833H404.08L429.444 888.656H326.038L301.324 937.833Z" fill="#D4E4FF"/>
<path d="M198.566 937.833H301.322L326.035 888.656H223.28L198.566 937.833Z" fill="#CDDCFF"/>
<path d="M95.1602 937.833H198.566L223.279 888.656H120.524L95.1602 937.833Z" fill="#CADBFF"/>
<path d="M-7.59375 937.833H95.1619L120.526 888.656H17.1196L-7.59375 937.833Z" fill="#C8DCFF"/>
<path d="M-18 888.656V937.833H-7.59437L17.119 888.656H-18Z" fill="#CBDFFF"/>
<path d="M1933.05 839.479H1895.98L1870.62 888.657H1933.05V839.479Z" fill="#D0EBFF"/>
<path d="M1767.87 888.657H1870.62L1895.99 839.479H1792.58L1767.87 888.657Z" fill="#E4F3FF"/>
<path d="M1665.11 888.657H1767.86L1792.58 839.479H1689.82L1665.11 888.657Z" fill="#F0F7FF"/>
<path d="M1561.7 888.657H1665.11L1689.82 839.479H1587.07L1561.7 888.657Z" fill="#FAFCFF"/>
<path d="M1458.95 888.657H1561.7L1587.07 839.479H1483.66L1458.95 888.657Z" fill="#F5F9FF"/>
<path d="M1356.2 888.657H1458.95L1483.66 839.479H1380.91L1356.2 888.657Z" fill="#E1EEFF"/>
<path d="M1252.79 888.657H1356.19L1380.91 839.479H1278.15L1252.79 888.657Z" fill="#F8FBFF"/>
<path d="M1150.03 888.657H1252.79L1278.15 839.479H1174.74L1150.03 888.657Z" fill="#F1F7FF"/>
<path d="M1047.28 888.657H1150.03L1174.75 839.479H1071.99L1047.28 888.657Z" fill="#CDE3FF"/>
<path d="M943.871 888.657H1047.28L1071.99 839.479H969.235L943.871 888.657Z" fill="#E3F0FF"/>
<path d="M841.113 888.657H943.869L969.233 839.479H865.827L841.113 888.657Z" fill="#E3F0FF"/>
<path d="M738.359 888.657H841.115L865.828 839.479H763.073L738.359 888.657Z" fill="#E1EEFF"/>
<path d="M634.953 888.657H738.359L763.072 839.479H660.317L634.953 888.657Z" fill="#DCEBFF"/>
<path d="M532.199 888.657H634.955L660.319 839.479H556.913L532.199 888.657Z" fill="#CFDEFF"/>
<path d="M429.441 888.657H532.197L556.91 839.479H454.155L429.441 888.657Z" fill="#CBDBFF"/>
<path d="M326.035 888.657H429.441L454.155 839.479H351.399L326.035 888.657Z" fill="#CADAFF"/>
<path d="M223.281 888.657H326.037L351.401 839.479H247.995L223.281 888.657Z" fill="#CADBFF"/>
<path d="M120.523 888.657H223.279L247.992 839.479H145.237L120.523 888.657Z" fill="#C2D7FF"/>
<path d="M17.1172 888.657H120.523L145.237 839.479H42.4809L17.1172 888.657Z" fill="#B8CEFF"/>
<path d="M-18 839.479V888.657H17.119L42.4827 839.479H-18Z" fill="#ACC5FF"/>
<path d="M1933.05 790.302H1920.7L1895.98 839.479H1933.05V790.302Z" fill="#CDE7FF"/>
<path d="M1792.58 839.479H1895.98L1920.7 790.302H1817.94L1792.58 839.479Z" fill="#C4E5FF"/>
<path d="M1689.82 839.479H1792.58L1817.94 790.302H1715.19L1689.82 839.479Z" fill="#DFF2FF"/>
<path d="M1587.07 839.479H1689.83L1715.19 790.302H1611.78L1587.07 839.479Z" fill="#E8F5FF"/>
<path d="M1483.66 839.479H1587.07L1611.78 790.302H1509.03L1483.66 839.479Z" fill="#D6E6FF"/>
<path d="M1380.91 839.479H1483.66L1509.03 790.302H1406.27L1380.91 839.479Z" fill="#F0F9FF"/>
<path d="M1278.15 839.479H1380.91L1406.27 790.302H1302.87L1278.15 839.479Z" fill="#ECF4FF"/>
<path d="M1174.75 839.479H1278.15L1302.87 790.302H1200.11L1174.75 839.479Z" fill="#D8E9FF"/>
<path d="M1071.99 839.479H1174.74L1200.11 790.302H1097.35L1071.99 839.479Z" fill="#CDE5FF"/>
<path d="M969.234 839.479H1071.99L1097.35 790.302H993.948L969.234 839.479Z" fill="#DBECFF"/>
<path d="M865.828 839.479H969.234L993.947 790.302H891.192L865.828 839.479Z" fill="#E2EFFF"/>
<path d="M763.074 839.479H865.83L891.193 790.302H788.438L763.074 839.479Z" fill="#E0EDFF"/>
<path d="M660.316 839.479H763.072L788.436 790.302H685.03L660.316 839.479Z" fill="#DDE6FF"/>
<path d="M556.91 839.479H660.316L685.03 790.302H582.274L556.91 839.479Z" fill="#D1DEFF"/>
<path d="M454.156 839.479H556.912L582.276 790.302H479.52L454.156 839.479Z" fill="#A7C2FF"/>
<path d="M351.398 839.479H454.154L479.518 790.302H376.112L351.398 839.479Z" fill="#B4CCFF"/>
<path d="M247.992 839.479H351.398L376.111 790.302H273.356L247.992 839.479Z" fill="#C0D4FF"/>
<path d="M145.238 839.479H247.994L273.358 790.302H170.602L145.238 839.479Z" fill="#A4C1FF"/>
<path d="M42.4844 839.479H145.24L170.604 790.302H67.1977L42.4844 839.479Z" fill="#ADC7FF"/>
<path d="M-18 790.302V839.479H42.4827L67.1961 790.302H-18Z" fill="#A6C1FF"/>
<path d="M1933.05 741.125H1842.65L1817.94 790.302H1920.7L1933.05 766.299V741.125Z" fill="#C2E6FF"/>
<path d="M1715.19 790.302H1817.94L1842.66 741.125H1739.9L1715.19 790.302Z" fill="#C4E5FF"/>
<path d="M1611.78 790.302H1715.19L1739.9 741.125H1637.15L1611.78 790.302Z" fill="#D4EBFF"/>
<path d="M1509.03 790.302H1611.78L1637.15 741.125H1533.74L1509.03 790.302Z" fill="#EAF7FF"/>
<path d="M1406.27 790.302H1509.03L1533.74 741.125H1430.98L1406.27 790.302Z" fill="#F4FAFF"/>
<path d="M1302.86 790.302H1406.27L1430.98 741.125H1328.23L1302.86 790.302Z" fill="#DCEBFF"/>
<path d="M1200.11 790.302H1302.86L1328.23 741.125H1224.82L1200.11 790.302Z" fill="#DFECFF"/>
<path d="M1097.36 790.302H1200.11L1224.82 741.125H1122.07L1097.36 790.302Z" fill="#D5E7FF"/>
<path d="M993.949 790.302H1097.36L1122.07 741.125H1019.31L993.949 790.302Z" fill="#DFEFFF"/>
<path d="M891.191 790.302H993.947L1019.31 741.125H915.905L891.191 790.302Z" fill="#DEEBFF"/>
<path d="M788.438 790.302H891.193L915.906 741.125H813.151L788.438 790.302Z" fill="#D1E1FF"/>
<path d="M685.031 790.302H788.437L813.151 741.125H710.395L685.031 790.302Z" fill="#C6D9FF"/>
<path d="M582.273 790.302H685.029L710.393 741.125H606.987L582.273 790.302Z" fill="#A4C5FF"/>
<path d="M479.52 790.302H582.275L606.988 741.125H504.233L479.52 790.302Z" fill="#A4C6FF"/>
<path d="M376.113 790.302H479.519L504.233 741.125H401.477L376.113 790.302Z" fill="#A8C6FF"/>
<path d="M273.359 790.302H376.115L401.479 741.125H298.073L273.359 790.302Z" fill="#B0CBFF"/>
<path d="M170.602 790.302H273.357L298.071 741.125H195.315L170.602 790.302Z" fill="#9ABCFF"/>
<path d="M67.1953 790.302H170.601L195.315 741.125H92.559L67.1953 790.302Z" fill="#A2BFFF"/>
<path d="M-10.8461 741.125L-18 755.761V790.302H67.1961L92.5598 741.125H-10.8461Z" fill="#A4C2FF"/>
<path d="M1933.06 691.948H1868.02L1842.66 741.125H1933.06V691.948Z" fill="#C3E5FF"/>
<path d="M1739.9 741.125H1842.66L1868.02 691.948H1764.62L1739.9 741.125Z" fill="#B3DFFF"/>
<path d="M1637.14 741.125H1739.9L1764.61 691.948H1661.86L1637.14 741.125Z" fill="#E1F1FF"/>
<path d="M1533.74 741.125H1637.14L1661.86 691.948H1559.1L1533.74 741.125Z" fill="#DFF2FF"/>
<path d="M1430.98 741.125H1533.74L1559.1 691.948H1455.7L1430.98 741.125Z" fill="#F1F7FF"/>
<path d="M1328.23 741.125H1430.98L1455.7 691.948H1352.94L1328.23 741.125Z" fill="#E3F0FF"/>
<path d="M1224.82 741.125H1328.23L1352.94 691.948H1250.19L1224.82 741.125Z" fill="#D6E6FF"/>
<path d="M1122.07 741.125H1224.82L1250.19 691.948H1146.78L1122.07 741.125Z" fill="#CADCFF"/>
<path d="M1019.31 741.125H1122.07L1146.78 691.948H1044.03L1019.31 741.125Z" fill="#D2E5FF"/>
<path d="M915.906 741.125H1019.31L1044.03 691.948H941.27L915.906 741.125Z" fill="#C9DBFF"/>
<path d="M813.148 741.125H915.904L941.268 691.948H837.862L813.148 741.125Z" fill="#C4D6FF"/>
<path d="M710.395 741.125H813.15L837.863 691.948H735.108L710.395 741.125Z" fill="#C6D9FF"/>
<path d="M606.988 741.125H710.394L735.108 691.948H632.352L606.988 741.125Z" fill="#B0CDFF"/>
<path d="M504.234 741.125H606.99L632.354 691.948H528.948L504.234 741.125Z" fill="#97BBFF"/>
<path d="M401.477 741.125H504.232L528.946 691.948H426.19L401.477 741.125Z" fill="#AEC8FF"/>
<path d="M298.07 741.125H401.476L426.19 691.948H323.434L298.07 741.125Z" fill="#AFC9FF"/>
<path d="M195.316 741.125H298.072L323.436 691.948H220.03L195.316 741.125Z" fill="#95B6FF"/>
<path d="M92.5586 741.125H195.314L220.028 691.948H117.272L92.5586 741.125Z" fill="#A3C0FF"/>
<path d="M-10.8477 741.125H92.5583L117.272 691.948H14.5161L-10.8477 741.125Z" fill="#AAC7FF"/>
<path d="M-18 691.948V741.125H-10.8461L14.5176 691.948H-18Z" fill="#A6C6FF"/>
<path d="M1933.05 642.771H1892.73L1868.02 691.948H1933.05V642.771Z" fill="#CEEBFF"/>
<path d="M1764.61 691.948H1868.02L1892.73 642.771H1789.98L1764.61 691.948Z" fill="#BCE1FF"/>
<path d="M1661.86 691.948H1764.61L1789.98 642.771H1686.57L1661.86 691.948Z" fill="#BAE5FF"/>
<path d="M1559.1 691.948H1661.86L1686.57 642.771H1583.81L1559.1 691.948Z" fill="#DAEEFF"/>
<path d="M1455.7 691.948H1559.11L1583.82 642.771H1481.06L1455.7 691.948Z" fill="#CFE9FF"/>
<path d="M1352.94 691.948H1455.7L1481.06 642.771H1377.65L1352.94 691.948Z" fill="#E0EFFF"/>
<path d="M1250.19 691.948H1352.94L1377.66 642.771H1274.9L1250.19 691.948Z" fill="#E1EEFF"/>
<path d="M1146.78 691.948H1250.19L1274.9 642.771H1172.14L1146.78 691.948Z" fill="#D7E8FF"/>
<path d="M1044.02 691.948H1146.78L1172.14 642.771H1068.74L1044.02 691.948Z" fill="#C0D7FF"/>
<path d="M941.27 691.948H1044.03L1068.74 642.771H965.983L941.27 691.948Z" fill="#C1D7FF"/>
<path d="M837.863 691.948H941.269L965.983 642.771H863.227L837.863 691.948Z" fill="#C9DEFF"/>
<path d="M735.109 691.948H837.865L863.229 642.771H759.823L735.109 691.948Z" fill="#CADBFF"/>
<path d="M632.352 691.948H735.107L759.821 642.771H657.065L632.352 691.948Z" fill="#B3CFFF"/>
<path d="M528.945 691.948H632.351L657.065 642.771H554.309L528.945 691.948Z" fill="#9FC1FF"/>
<path d="M426.191 691.948H528.947L554.311 642.771H450.905L426.191 691.948Z" fill="#C5D7FF"/>
<path d="M323.434 691.948H426.189L450.903 642.771H348.147L323.434 691.948Z" fill="#BDD1FF"/>
<path d="M220.027 691.948H323.433L348.147 642.771H245.391L220.027 691.948Z" fill="#A3C2FF"/>
<path d="M117.273 691.948H220.029L245.393 642.771H141.987L117.273 691.948Z" fill="#A9C5FF"/>
<path d="M14.5195 691.948H117.275L141.988 642.771H39.2329L14.5195 691.948Z" fill="#8BB2FF"/>
<path d="M-18 642.771V691.948H14.5176L39.231 642.771H-18Z" fill="#8FB1FF"/>
<path d="M1933.06 593.594H1917.45L1892.73 642.771H1933.06V593.594Z" fill="#CBE8FF"/>
<path d="M1789.98 642.771H1892.73L1917.45 593.594H1814.69L1789.98 642.771Z" fill="#BEE4FF"/>
<path d="M1686.57 642.771H1789.98L1814.69 593.594H1711.94L1686.57 642.771Z" fill="#BCE7FF"/>
<path d="M1583.82 642.771H1686.57L1711.94 593.594H1608.53L1583.82 642.771Z" fill="#C6E6FF"/>
<path d="M1481.06 642.771H1583.82L1608.53 593.594H1505.78L1481.06 642.771Z" fill="#C0E4FF"/>
<path d="M1377.66 642.771H1481.06L1505.78 593.594H1403.02L1377.66 642.771Z" fill="#D2E4FF"/>
<path d="M1274.9 642.771H1377.65L1403.02 593.594H1299.61L1274.9 642.771Z" fill="#DEEBFF"/>
<path d="M1172.14 642.771H1274.9L1299.61 593.594H1196.86L1172.14 642.771Z" fill="#C0DDFF"/>
<path d="M1068.74 642.771H1172.14L1196.86 593.594H1094.1L1068.74 642.771Z" fill="#B5D5FF"/>
<path d="M965.984 642.771H1068.74L1094.1 593.594H990.698L965.984 642.771Z" fill="#C1D6FF"/>
<path d="M863.227 642.771H965.982L990.696 593.594H887.94L863.227 642.771Z" fill="#C5D9FF"/>
<path d="M759.82 642.771H863.226L887.94 593.594H785.184L759.82 642.771Z" fill="#CFDEFF"/>
<path d="M657.066 642.771H759.822L785.186 593.594H681.78L657.066 642.771Z" fill="#B2CAFF"/>
<path d="M554.309 642.771H657.064L681.778 593.594H579.022L554.309 642.771Z" fill="#B2C9FF"/>
<path d="M450.902 642.771H554.308L579.022 593.594H476.266L450.902 642.771Z" fill="#BCD1FF"/>
<path d="M348.148 642.771H450.904L476.268 593.594H372.862L348.148 642.771Z" fill="#B5CEFF"/>
<path d="M245.391 642.771H348.146L372.86 593.594H270.104L245.391 642.771Z" fill="#A2BFFF"/>
<path d="M141.988 642.771H245.394L270.108 593.594H167.352L141.988 642.771Z" fill="#9ABDFF"/>
<path d="M39.2305 642.771H141.986L167.35 593.594H63.9438L39.2305 642.771Z" fill="#84ACFF"/>
<path d="M-18 593.594V642.771H39.231L63.9443 593.594H-18Z" fill="#7DA6FF"/>
<path d="M1933.06 563.15L1917.45 593.593H1933.06V563.15Z" fill="#A5DBFF"/>
<path d="M1933.06 544.417H1839.4L1814.69 593.594H1917.45L1933.06 563.151V544.417Z" fill="#AEE1FF"/>
<path d="M1711.94 593.594H1814.69L1839.41 544.417H1736.65L1711.94 593.594Z" fill="#B1DBFF"/>
<path d="M1608.53 593.594H1711.94L1736.65 544.417H1633.89L1608.53 593.594Z" fill="#C9E3FF"/>
<path d="M1505.77 593.594H1608.53L1633.89 544.417H1530.49L1505.77 593.594Z" fill="#C6E8FF"/>
<path d="M1403.02 593.594H1505.78L1530.49 544.417H1427.73L1403.02 593.594Z" fill="#C6E6FF"/>
<path d="M1299.61 593.594H1403.02L1427.73 544.417H1324.98L1299.61 593.594Z" fill="#C2DFFF"/>
<path d="M1196.86 593.594H1299.61L1324.97 544.417H1221.57L1196.86 593.594Z" fill="#B4D6FF"/>
<path d="M1094.1 593.594H1196.86L1221.57 544.417H1118.81L1094.1 593.594Z" fill="#B8D4FF"/>
<path d="M990.695 593.594H1094.1L1118.81 544.417H1016.06L990.695 593.594Z" fill="#C1D7FF"/>
<path d="M887.941 593.594H990.697L1016.06 544.417H912.655L887.941 593.594Z" fill="#C2D6FF"/>
<path d="M785.184 593.594H887.939L912.653 544.417H809.897L785.184 593.594Z" fill="#CFDEFF"/>
<path d="M681.777 593.594H785.183L809.897 544.417H707.141L681.777 593.594Z" fill="#B4C9FF"/>
<path d="M579.023 593.594H681.779L707.143 544.417H603.737L579.023 593.594Z" fill="#A9C6FF"/>
<path d="M476.266 593.594H579.021L603.735 544.417H500.979L476.266 593.594Z" fill="#A4C1FF"/>
<path d="M372.863 593.594H476.269L500.983 544.417H398.227L372.863 593.594Z" fill="#ADC8FF"/>
<path d="M270.105 593.594H372.861L398.225 544.417H294.819L270.105 593.594Z" fill="#8FB5FF"/>
<path d="M167.352 593.594H270.107L294.821 544.417H192.065L167.352 593.594Z" fill="#84ABFF"/>
<path d="M63.9453 593.594H167.351L192.065 544.417H89.309L63.9453 593.594Z" fill="#6195FF"/>
<path d="M-14.0979 544.417L-18 552.613V593.594H63.9443L89.3081 544.417H-14.0979Z" fill="#6A9DFF"/>
<path d="M1933.06 495.239H1864.77L1839.41 544.416H1933.06V495.239Z" fill="#A9DBFF"/>
<path d="M1736.65 544.416H1839.4L1864.77 495.239H1762.01L1736.65 544.416Z" fill="#9ED5FF"/>
<path d="M1633.89 544.416H1736.65L1762.01 495.239H1658.61L1633.89 544.416Z" fill="#87D0FF"/>
<path d="M1530.49 544.416H1633.89L1658.61 495.239H1555.85L1530.49 544.416Z" fill="#A0D7FF"/>
<path d="M1427.73 544.416H1530.49L1555.85 495.239H1453.09L1427.73 544.416Z" fill="#B7DDFF"/>
<path d="M1324.98 544.416H1427.73L1453.1 495.239H1349.69L1324.98 544.416Z" fill="#BADBFF"/>
<path d="M1221.57 544.416H1324.98L1349.69 495.239H1246.93L1221.57 544.416Z" fill="#A4CFFF"/>
<path d="M1118.82 544.416H1221.57L1246.94 495.239H1144.18L1118.82 544.416Z" fill="#BBD1FF"/>
<path d="M1016.06 544.416H1118.81L1144.18 495.239H1040.77L1016.06 544.416Z" fill="#C0D7FF"/>
<path d="M912.652 544.416H1016.06L1040.77 495.239H938.016L912.652 544.416Z" fill="#BED5FF"/>
<path d="M809.898 544.416H912.654L938.018 495.239H835.262L809.898 544.416Z" fill="#C3D6FF"/>
<path d="M707.141 544.416H809.896L835.26 495.239H731.854L707.141 544.416Z" fill="#ADC8FF"/>
<path d="M603.738 544.416H707.144L731.858 495.239H629.102L603.738 544.416Z" fill="#9ABBFF"/>
<path d="M500.98 544.416H603.736L629.1 495.239H526.344L500.98 544.416Z" fill="#8DB2FF"/>
<path d="M398.227 544.416H500.982L526.346 495.239H422.94L398.227 544.416Z" fill="#80ADFF"/>
<path d="M294.82 544.416H398.226L422.94 495.239H320.184L294.82 544.416Z" fill="#83ADFF"/>
<path d="M192.062 544.416H294.818L320.182 495.239H217.426L192.062 544.416Z" fill="#85AFFF"/>
<path d="M89.3086 544.416H192.064L217.428 495.239H114.022L89.3086 544.416Z" fill="#5F97FF"/>
<path d="M-14.0977 544.416H89.3083L114.022 495.239H11.2661L-14.0977 544.416Z" fill="#4984FF"/>
<path d="M-18 495.239V544.416H-14.0979L11.2658 495.239H-18Z" fill="#3584FF"/>
<path d="M1933.06 446.062H1889.48L1864.77 495.24H1933.06V446.062Z" fill="#8FD1FF"/>
<path d="M1762.01 495.24H1864.77L1889.48 446.062H1786.73L1762.01 495.24Z" fill="#69C3FF"/>
<path d="M1658.61 495.24H1762.01L1786.72 446.062H1683.97L1658.61 495.24Z" fill="#9DD7FF"/>
<path d="M1555.85 495.24H1658.61L1683.97 446.062H1580.56L1555.85 495.24Z" fill="#9FD4FF"/>
<path d="M1453.1 495.24H1555.85L1580.57 446.062H1477.81L1453.1 495.24Z" fill="#B0DBFF"/>
<path d="M1349.69 495.24H1453.1L1477.81 446.062H1375.06L1349.69 495.24Z" fill="#C7E5FF"/>
<path d="M1246.93 495.24H1349.69L1375.05 446.062H1271.65L1246.93 495.24Z" fill="#BED9FF"/>
<path d="M1144.18 495.24H1246.94L1271.65 446.062H1168.89L1144.18 495.24Z" fill="#C1D8FF"/>
<path d="M1040.77 495.24H1144.18L1168.89 446.062H1066.14L1040.77 495.24Z" fill="#B7D2FF"/>
<path d="M938.016 495.24H1040.77L1066.13 446.062H962.729L938.016 495.24Z" fill="#A7C5FF"/>
<path d="M835.262 495.24H938.017L962.731 446.062H859.975L835.262 495.24Z" fill="#ACC8FF"/>
<path d="M731.855 495.24H835.261L859.975 446.062H757.219L731.855 495.24Z" fill="#A4C0FF"/>
<path d="M629.102 495.24H731.857L757.221 446.062H653.815L629.102 495.24Z" fill="#93B6FF"/>
<path d="M526.344 495.24H629.099L653.813 446.062H551.057L526.344 495.24Z" fill="#83ABFF"/>
<path d="M422.938 495.24H526.343L551.057 446.062H448.301L422.938 495.24Z" fill="#8BB5FF"/>
<path d="M320.184 495.24H422.939L448.303 446.062H344.897L320.184 495.24Z" fill="#6FA3FF"/>
<path d="M217.426 495.24H320.181L344.895 446.062H242.139L217.426 495.24Z" fill="#5C95FF"/>
<path d="M114.02 495.24H217.425L242.139 446.062H139.383L114.02 495.24Z" fill="#317AFF"/>
<path d="M11.2656 495.24H114.021L139.385 446.062H35.979L11.2656 495.24Z" fill="#4089FF"/>
<path d="M-18 446.062V495.24H11.2658L35.9792 446.062H-18Z" fill="#3386FF"/>
<path d="M1933.05 396.886H1914.84L1889.48 446.063H1933.05V396.886Z" fill="#3FB1FF"/>
<path d="M1786.73 446.063H1889.48L1914.85 396.886H1811.44L1786.73 446.063Z" fill="#62BEFF"/>
<path d="M1683.97 446.063H1786.73L1811.44 396.886H1708.69L1683.97 446.063Z" fill="#7CCAFF"/>
<path d="M1580.57 446.063H1683.97L1708.69 396.886H1605.93L1580.57 446.063Z" fill="#A7D8FF"/>
<path d="M1477.81 446.063H1580.56L1605.93 396.886H1502.52L1477.81 446.063Z" fill="#B5DBFF"/>
<path d="M1375.05 446.063H1477.81L1502.52 396.886H1399.77L1375.05 446.063Z" fill="#B6D9FF"/>
<path d="M1271.65 446.063H1375.05L1399.77 396.886H1297.01L1271.65 446.063Z" fill="#CEE0FF"/>
<path d="M1168.89 446.063H1271.65L1297.01 396.886H1193.6L1168.89 446.063Z" fill="#BCD4FF"/>
<path d="M1066.14 446.063H1168.89L1193.61 396.886H1090.85L1066.14 446.063Z" fill="#A0C2FF"/>
<path d="M962.73 446.063H1066.14L1090.85 396.886H988.094L962.73 446.063Z" fill="#9DBFFF"/>
<path d="M859.977 446.063H962.732L988.096 396.886H884.69L859.977 446.063Z" fill="#A6C4FF"/>
<path d="M757.219 446.063H859.974L884.688 396.886H781.932L757.219 446.063Z" fill="#9AB7FF"/>
<path d="M653.812 446.063H757.218L781.932 396.886H679.176L653.812 446.063Z" fill="#8EAEFF"/>
<path d="M551.059 446.063H653.814L679.178 396.886H575.772L551.059 446.063Z" fill="#93B4FF"/>
<path d="M448.301 446.063H551.056L575.77 396.886H473.014L448.301 446.063Z" fill="#96B7FF"/>
<path d="M344.895 446.063H448.3L473.014 396.886H370.258L344.895 446.063Z" fill="#4487FF"/>
<path d="M242.141 446.063H344.896L370.26 396.886H266.854L242.141 446.063Z" fill="#1969FF"/>
<path d="M139.387 446.063H242.142L266.856 396.886H164.1L139.387 446.063Z" fill="#357AFF"/>
<path d="M35.9805 446.063H139.386L164.1 396.886H61.3442L35.9805 446.063Z" fill="#3385FF"/>
<path d="M-18 396.886V446.063H35.9792L61.3429 396.886H-18Z" fill="#1B7BFF"/>
<path d="M1933.06 360.588L1914.85 396.885H1933.06V360.588Z" fill="#52BDFF"/>
<path d="M1933.06 347.708H1836.81L1811.44 396.885H1914.85L1933.06 360.588V347.708Z" fill="#70C5FF"/>
<path d="M1708.68 396.885H1811.44L1836.8 347.708H1733.4L1708.68 396.885Z" fill="#8DD0FF"/>
<path d="M1605.93 396.885H1708.69L1733.4 347.708H1630.64L1605.93 396.885Z" fill="#A3D5FF"/>
<path d="M1502.52 396.885H1605.93L1630.64 347.708H1527.89L1502.52 396.885Z" fill="#9CD5FF"/>
<path d="M1399.77 396.885H1502.52L1527.89 347.708H1424.48L1399.77 396.885Z" fill="#C3DEFF"/>
<path d="M1297.01 396.885H1399.77L1424.48 347.708H1321.73L1297.01 396.885Z" fill="#C4DFFF"/>
<path d="M1193.61 396.885H1297.01L1321.72 347.708H1218.97L1193.61 396.885Z" fill="#ACCEFF"/>
<path d="M1090.85 396.885H1193.61L1218.97 347.708H1115.57L1090.85 396.885Z" fill="#90BCFF"/>
<path d="M988.094 396.885H1090.85L1115.56 347.708H1012.81L988.094 396.885Z" fill="#7BABFF"/>
<path d="M884.688 396.885H988.093L1012.81 347.708H910.051L884.688 396.885Z" fill="#8FB4FF"/>
<path d="M781.934 396.885H884.689L910.053 347.708H806.647L781.934 396.885Z" fill="#97B4FF"/>
<path d="M679.176 396.885H781.931L806.645 347.708H703.889L679.176 396.885Z" fill="#88AEFF"/>
<path d="M575.77 396.885H679.175L703.889 347.708H601.133L575.77 396.885Z" fill="#98B7FF"/>
<path d="M473.016 396.885H575.771L601.135 347.708H497.729L473.016 396.885Z" fill="#8BB3FF"/>
<path d="M370.262 396.885H473.017L497.731 347.708H394.975L370.262 396.885Z" fill="#5D92FF"/>
<path d="M266.855 396.885H370.261L394.975 347.708H292.219L266.855 396.885Z" fill="#2C6EFF"/>
<path d="M164.098 396.885H266.853L292.217 347.708H188.811L164.098 396.885Z" fill="#1F7AFF"/>
<path d="M61.3438 396.885H164.099L188.813 347.708H86.0571L61.3438 396.885Z" fill="#2182FF"/>
<path d="M-16.6993 347.708L-18 350.05V396.885H61.3429L86.0563 347.708H-16.6993Z" fill="#1877FF"/>
<path d="M1933.06 298.531H1861.52L1836.8 347.708H1933.06V298.531Z" fill="#78C7FF"/>
<path d="M1733.4 347.708H1836.8L1861.52 298.531H1758.76L1733.4 347.708Z" fill="#72C4FF"/>
<path d="M1630.64 347.708H1733.4L1758.76 298.531H1655.35L1630.64 347.708Z" fill="#A7D3FF"/>
<path d="M1527.89 347.708H1630.64L1655.36 298.531H1552.6L1527.89 347.708Z" fill="#BBDCFF"/>
<path d="M1424.48 347.708H1527.89L1552.6 298.531H1449.84L1424.48 347.708Z" fill="#B7DDFF"/>
<path d="M1321.73 347.708H1424.48L1449.85 298.531H1346.44L1321.73 347.708Z" fill="#B8DBFF"/>
<path d="M1218.97 347.708H1321.72L1346.44 298.531H1243.68L1218.97 347.708Z" fill="#A1CBFF"/>
<path d="M1115.56 347.708H1218.97L1243.68 298.531H1140.93L1115.56 347.708Z" fill="#84B7FF"/>
<path d="M1012.81 347.708H1115.56L1140.93 298.531H1037.52L1012.81 347.708Z" fill="#71ACFF"/>
<path d="M910.051 347.708H1012.81L1037.52 298.531H934.764L910.051 347.708Z" fill="#7FACFF"/>
<path d="M806.645 347.708H910.05L934.764 298.531H832.008L806.645 347.708Z" fill="#87AFFF"/>
<path d="M703.891 347.708H806.646L832.01 298.531H728.604L703.891 347.708Z" fill="#86B0FF"/>
<path d="M601.137 347.708H703.892L728.606 298.531H625.85L601.137 347.708Z" fill="#8AB0FF"/>
<path d="M497.73 347.708H601.136L625.85 298.531H523.094L497.73 347.708Z" fill="#6A9CFF"/>
<path d="M394.973 347.708H497.728L523.092 298.531H419.686L394.973 347.708Z" fill="#3C7BFF"/>
<path d="M292.219 347.708H394.974L419.688 298.531H316.932L292.219 347.708Z" fill="#0364FF"/>
<path d="M188.812 347.708H292.218L316.932 298.531H214.176L188.812 347.708Z" fill="#2F80FF"/>
<path d="M86.0547 347.708H188.81L214.174 298.531H110.768L86.0547 347.708Z" fill="#1A7AFF"/>
<path d="M-16.6992 347.708H86.0564L110.77 298.531H8.01415L-16.6992 347.708Z" fill="#007AFF"/>
<path d="M-18 298.531V347.708H-16.6993L8.01408 298.531H-18Z" fill="#2A81FF"/>
<path d="M1933.05 249.354H1886.23L1861.52 298.532H1933.05V249.354Z" fill="#83CEFF"/>
<path d="M1758.76 298.532H1861.52L1886.23 249.354H1783.48L1758.76 298.532Z" fill="#61BDFF"/>
<path d="M1655.36 298.532H1758.76L1783.47 249.354H1680.72L1655.36 298.532Z" fill="#89CEFF"/>
<path d="M1552.6 298.532H1655.36L1680.72 249.354H1577.32L1552.6 298.532Z" fill="#AAD8FF"/>
<path d="M1449.84 298.532H1552.6L1577.31 249.354H1474.56L1449.84 298.532Z" fill="#C0E0FF"/>
<path d="M1346.44 298.532H1449.84L1474.56 249.354H1371.8L1346.44 298.532Z" fill="#ACD6FF"/>
<path d="M1243.68 298.532H1346.44L1371.8 249.354H1268.4L1243.68 298.532Z" fill="#9BCAFF"/>
<path d="M1140.93 298.532H1243.68L1268.39 249.354H1165.64L1140.93 298.532Z" fill="#6DADFF"/>
<path d="M1037.52 298.532H1140.93L1165.64 249.354H1062.88L1037.52 298.532Z" fill="#5DA2FF"/>
<path d="M934.766 298.532H1037.52L1062.89 249.354H959.479L934.766 298.532Z" fill="#6FA9FF"/>
<path d="M832.012 298.532H934.767L959.481 249.354H856.725L832.012 298.532Z" fill="#729FFF"/>
<path d="M728.605 298.532H832.011L856.725 249.354H753.969L728.605 298.532Z" fill="#88B2FF"/>
<path d="M625.848 298.532H728.603L753.967 249.354H650.561L625.848 298.532Z" fill="#6D9EFF"/>
<path d="M523.094 298.532H625.849L650.563 249.354H547.807L523.094 298.532Z" fill="#72A2FF"/>
<path d="M419.688 298.532H523.093L547.807 249.354H445.051L419.688 298.532Z" fill="#2872FF"/>
<path d="M316.93 298.532H419.685L445.049 249.354H341.643L316.93 298.532Z" fill="#2071FF"/>
<path d="M214.176 298.532H316.931L341.645 249.354H238.889L214.176 298.532Z" fill="#2677FF"/>
<path d="M110.77 298.532H214.175L238.889 249.354H136.133L110.77 298.532Z" fill="#137CFF"/>
<path d="M8.01562 298.532H110.771L136.135 249.354H32.729L8.01562 298.532Z" fill="#1B7CFF"/>
<path d="M-18 249.354V298.532H8.01408L32.7274 249.354H-18Z" fill="#2A83FF"/>
<path d="M1933.06 200.177H1911.59L1886.23 249.354H1933.06V200.177Z" fill="#7BCAFF"/>
<path d="M1783.48 249.354H1886.23L1911.6 200.177H1808.84L1783.48 249.354Z" fill="#6DC4FF"/>
<path d="M1680.72 249.354H1783.47L1808.84 200.177H1705.43L1680.72 249.354Z" fill="#87CBFF"/>
<path d="M1577.31 249.354H1680.72L1705.43 200.177H1602.68L1577.31 249.354Z" fill="#93D0FF"/>
<path d="M1474.56 249.354H1577.31L1602.68 200.177H1499.92L1474.56 249.354Z" fill="#A3D3FF"/>
<path d="M1371.8 249.354H1474.56L1499.92 200.177H1396.51L1371.8 249.354Z" fill="#A9D6FF"/>
<path d="M1268.39 249.354H1371.8L1396.51 200.177H1293.76L1268.39 249.354Z" fill="#7DBBFF"/>
<path d="M1165.64 249.354H1268.4L1293.76 200.177H1191L1165.64 249.354Z" fill="#58A8FF"/>
<path d="M1062.89 249.354H1165.64L1191.01 200.177H1087.6L1062.89 249.354Z" fill="#5CA3FF"/>
<path d="M959.48 249.354H1062.89L1087.6 200.177H984.844L959.48 249.354Z" fill="#71A7FF"/>
<path d="M856.723 249.354H959.478L984.842 200.177H882.086L856.723 249.354Z" fill="#6EA1FF"/>
<path d="M753.969 249.354H856.724L882.088 200.177H778.682L753.969 249.354Z" fill="#69A0FF"/>
<path d="M650.562 249.354H753.968L778.682 200.177H675.926L650.562 249.354Z" fill="#7DAAFF"/>
<path d="M547.805 249.354H650.56L675.924 200.177H573.168L547.805 249.354Z" fill="#518CFF"/>
<path d="M445.051 249.354H547.806L573.17 200.177H469.764L445.051 249.354Z" fill="#3B7FFF"/>
<path d="M341.645 249.354H445.05L469.764 200.177H367.008L341.645 249.354Z" fill="#0C6BFF"/>
<path d="M238.891 249.354H341.646L367.01 200.177H264.254L238.891 249.354Z" fill="#347EFF"/>
<path d="M136.133 249.354H238.888L264.252 200.177H160.846L136.133 249.354Z" fill="#1F77FF"/>
<path d="M32.7266 249.354H136.133L160.846 200.177H58.0903L32.7266 249.354Z" fill="#3185FF"/>
<path d="M-18 200.177V249.354H32.7275L58.0912 200.177H-18Z" fill="#0F75FF"/>
<path d="M1933.06 157.439L1911.59 200.177H1933.06V157.439Z" fill="#83CCFF"/>
<path d="M1933.06 151H1833.55L1808.84 200.177H1911.6L1933.06 157.44V151Z" fill="#6BC4FF"/>
<path d="M1705.43 200.177H1808.84L1833.55 151H1730.8L1705.43 200.177Z" fill="#75C9FF"/>
<path d="M1602.68 200.177H1705.43L1730.8 151H1627.39L1602.68 200.177Z" fill="#81CDFF"/>
<path d="M1499.92 200.177H1602.68L1627.39 151H1524.64L1499.92 200.177Z" fill="#8ACDFF"/>
<path d="M1396.52 200.177H1499.92L1524.63 151H1421.88L1396.52 200.177Z" fill="#89CEFF"/>
<path d="M1293.76 200.177H1396.52L1421.88 151H1318.48L1293.76 200.177Z" fill="#77BDFF"/>
<path d="M1191 200.177H1293.76L1318.47 151H1215.72L1191 200.177Z" fill="#52A5FF"/>
<path d="M1087.6 200.177H1191L1215.72 151H1112.96L1087.6 200.177Z" fill="#66A2FF"/>
<path d="M984.844 200.177H1087.6L1112.96 151H1009.56L984.844 200.177Z" fill="#669CFF"/>
<path d="M882.086 200.177H984.842L1009.55 151H906.799L882.086 200.177Z" fill="#4A90FF"/>
<path d="M778.68 200.177H882.086L906.799 151H804.043L778.68 200.177Z" fill="#5792FF"/>
<path d="M675.926 200.177H778.681L804.045 151H700.639L675.926 200.177Z" fill="#5C95FF"/>
<path d="M573.172 200.177H675.927L700.641 151H597.885L573.172 200.177Z" fill="#88ACFF"/>
<path d="M469.766 200.177H573.172L597.885 151H495.129L469.766 200.177Z" fill="#4B86FF"/>
<path d="M367.008 200.177H469.763L495.127 151H391.721L367.008 200.177Z" fill="#0E62FF"/>
<path d="M264.254 200.177H367.009L391.723 151H288.967L264.254 200.177Z" fill="#2E72FF"/>
<path d="M160.848 200.177H264.254L288.967 151H186.211L160.848 200.177Z" fill="#3779FF"/>
<path d="M58.0898 200.177H160.845L186.209 151H82.8032L58.0898 200.177Z" fill="#3F83FF"/>
<path d="M-18 151V200.177H58.0912L82.8045 151H-18Z" fill="#0675FF"/>
<g style="mix-blend-mode:multiply">
<path d="M-18 1036.19H11.2658L-14.0979 987.011H-18V1036.19Z" fill="#F5FAFF"/>
<path d="M114.022 1036.19H11.2661L-14.0977 987.011H89.3083L114.022 1036.19Z" fill="#EBF6FF"/>
<path d="M217.428 1036.19H114.022L89.3086 987.011H192.064L217.428 1036.19Z" fill="#F2F9FF"/>
<path d="M320.182 1036.19H217.426L192.062 987.011H294.818L320.182 1036.19Z" fill="#F5F9FF"/>
<path d="M422.94 1036.19H320.184L294.82 987.011H398.226L422.94 1036.19Z" fill="#F4FAFF"/>
<path d="M526.346 1036.19H422.94L398.227 987.011H500.982L526.346 1036.19Z" fill="#FBFEFF"/>
<path d="M629.1 1036.19H526.344L500.98 987.011H603.736L629.1 1036.19Z" fill="#FDFFFF"/>
<path d="M731.858 1036.19H629.102L603.738 987.011H707.144L731.858 1036.19Z" fill="#FDFFFF"/>
<path d="M835.26 1036.19H731.854L707.141 987.011H809.896L835.26 1036.19Z" fill="#F4F9FF"/>
<path d="M938.018 1036.19H835.262L809.898 987.011H912.654L938.018 1036.19Z" fill="#F4F9FF"/>
<path d="M1040.77 1036.19H938.016L912.652 987.011H1016.06L1040.77 1036.19Z" fill="#E0EEFF"/>
<path d="M1144.18 1036.19H1040.77L1016.06 987.011H1118.81L1144.18 1036.19Z" fill="#F3F8FF"/>
<path d="M1246.94 1036.19H1144.18L1118.82 987.011H1221.57L1246.94 1036.19Z" fill="#EAF2FF"/>
<path d="M1349.69 1036.19H1246.93L1221.57 987.011H1324.98L1349.69 1036.19Z" fill="#E4EEFF"/>
<path d="M1453.1 1036.19H1349.69L1324.98 987.011H1427.73L1453.1 1036.19Z" fill="#D8E5FF"/>
<path d="M1555.85 1036.19H1453.09L1427.73 987.011H1530.49L1555.85 1036.19Z" fill="#D4E3FF"/>
<path d="M1658.61 1036.19H1555.85L1530.49 987.011H1633.89L1658.61 1036.19Z" fill="#D6E4FF"/>
<path d="M1762.01 1036.19H1658.61L1633.89 987.011H1736.65L1762.01 1036.19Z" fill="#D5E4FF"/>
<path d="M1864.77 1036.19H1762.01L1736.65 987.011H1839.4L1864.77 1036.19Z" fill="#DDE6FF"/>
<path d="M1933.06 987.011H1839.41L1864.77 1036.19H1933.06V987.011Z" fill="#D4E4FF"/>
<path d="M63.9443 937.833H-18V978.814L-14.0979 987.01H89.3081L63.9443 937.833Z" fill="#EBF6FF"/>
<path d="M192.065 987.01H89.309L63.9453 937.833H167.351L192.065 987.01Z" fill="#E9F7FF"/>
<path d="M294.821 987.01H192.065L167.352 937.833H270.107L294.821 987.01Z" fill="#F2F9FF"/>
<path d="M398.225 987.01H294.819L270.105 937.833H372.861L398.225 987.01Z" fill="#EEF7FF"/>
<path d="M500.983 987.01H398.227L372.863 937.833H476.269L500.983 987.01Z" fill="#F9FCFF"/>
<path d="M603.735 987.01H500.979L476.266 937.833H579.021L603.735 987.01Z" fill="#FDFFFF"/>
<path d="M707.143 987.01H603.737L579.023 937.833H681.779L707.143 987.01Z" fill="#FAFCFF"/>
<path d="M809.897 987.01H707.141L681.777 937.833H785.183L809.897 987.01Z" fill="#F2F9FF"/>
<path d="M912.653 987.01H809.897L785.184 937.833H887.939L912.653 987.01Z" fill="#DFEFFF"/>
<path d="M1016.06 987.01H912.655L887.941 937.833H990.697L1016.06 987.01Z" fill="#EFF6FF"/>
<path d="M1118.81 987.01H1016.06L990.695 937.833H1094.1L1118.81 987.01Z" fill="#F3F9FF"/>
<path d="M1221.57 987.01H1118.81L1094.1 937.833H1196.86L1221.57 987.01Z" fill="#E7F3FF"/>
<path d="M1324.97 987.01H1221.57L1196.86 937.833H1299.61L1324.97 987.01Z" fill="#E5EEFF"/>
<path d="M1427.73 987.01H1324.98L1299.61 937.833H1403.02L1427.73 987.01Z" fill="#D8E5FF"/>
<path d="M1530.49 987.01H1427.73L1403.02 937.833H1505.78L1530.49 987.01Z" fill="#CFDEFF"/>
<path d="M1633.89 987.01H1530.49L1505.77 937.833H1608.53L1633.89 987.01Z" fill="#D5E4FF"/>
<path d="M1736.65 987.01H1633.89L1608.53 937.833H1711.94L1736.65 987.01Z" fill="#D2E2FF"/>
<path d="M1839.41 987.01H1736.65L1711.94 937.833H1814.69L1839.41 987.01Z" fill="#CCDDFF"/>
<path d="M1933.06 968.276L1917.45 937.833H1814.69L1839.4 987.01H1933.06V968.276Z" fill="#C7D9FF"/>
<path d="M1933.06 937.833H1917.45L1933.06 968.276V937.833Z" fill="#D1E2FF"/>
<path d="M-18 937.833H63.9443L39.231 888.656H-18V937.833Z" fill="#E3F3FF"/>
<path d="M167.35 937.833H63.9438L39.2305 888.656H141.986L167.35 937.833Z" fill="#EAF6FF"/>
<path d="M270.108 937.833H167.352L141.988 888.656H245.394L270.108 937.833Z" fill="#F3F8FF"/>
<path d="M372.86 937.833H270.104L245.391 888.656H348.146L372.86 937.833Z" fill="#F4FCFF"/>
<path d="M476.268 937.833H372.862L348.148 888.656H450.904L476.268 937.833Z" fill="#F9FBFF"/>
<path d="M579.022 937.833H476.266L450.902 888.656H554.308L579.022 937.833Z" fill="#F9FDFF"/>
<path d="M681.778 937.833H579.022L554.309 888.656H657.064L681.778 937.833Z" fill="#FAFAFF"/>
<path d="M785.186 937.833H681.78L657.066 888.656H759.822L785.186 937.833Z" fill="#E2EAFF"/>
<path d="M887.94 937.833H785.184L759.82 888.656H863.226L887.94 937.833Z" fill="#D6E6FF"/>
<path d="M990.696 937.833H887.94L863.227 888.656H965.982L990.696 937.833Z" fill="#EBF6FF"/>
<path d="M1094.1 937.833H990.698L965.984 888.656H1068.74L1094.1 937.833Z" fill="#E5F0FF"/>
<path d="M1196.86 937.833H1094.1L1068.74 888.656H1172.14L1196.86 937.833Z" fill="#CEDFFF"/>
<path d="M1299.61 937.833H1196.86L1172.14 888.656H1274.9L1299.61 937.833Z" fill="#DAE6FF"/>
<path d="M1403.02 937.833H1299.61L1274.9 888.656H1377.65L1403.02 937.833Z" fill="#D6E4FF"/>
<path d="M1505.78 937.833H1403.02L1377.66 888.656H1481.06L1505.78 937.833Z" fill="#CCDBFF"/>
<path d="M1608.53 937.833H1505.78L1481.06 888.656H1583.82L1608.53 937.833Z" fill="#D4E4FF"/>
<path d="M1711.94 937.833H1608.53L1583.82 888.656H1686.57L1711.94 937.833Z" fill="#CDDCFF"/>
<path d="M1814.69 937.833H1711.94L1686.57 888.656H1789.98L1814.69 937.833Z" fill="#CADBFF"/>
<path d="M1917.45 937.833H1814.69L1789.98 888.656H1892.73L1917.45 937.833Z" fill="#C8DCFF"/>
<path d="M1933.06 888.656H1892.73L1917.45 937.833H1933.06V888.656Z" fill="#CBDFFF"/>
<path d="M-18 888.657H39.231L14.5176 839.479H-18V888.657Z" fill="#D0EBFF"/>
<path d="M141.988 888.657H39.2329L14.5195 839.479H117.275L141.988 888.657Z" fill="#E4F3FF"/>
<path d="M245.393 888.657H141.987L117.273 839.479H220.029L245.393 888.657Z" fill="#F0F7FF"/>
<path d="M348.147 888.657H245.391L220.027 839.479H323.433L348.147 888.657Z" fill="#FAFCFF"/>
<path d="M450.903 888.657H348.147L323.434 839.479H426.189L450.903 888.657Z" fill="#F5F9FF"/>
<path d="M554.311 888.657H450.905L426.191 839.479H528.947L554.311 888.657Z" fill="#E1EEFF"/>
<path d="M657.065 888.657H554.309L528.945 839.479H632.351L657.065 888.657Z" fill="#F8FBFF"/>
<path d="M759.821 888.657H657.065L632.352 839.479H735.107L759.821 888.657Z" fill="#F1F7FF"/>
<path d="M863.229 888.657H759.823L735.109 839.479H837.865L863.229 888.657Z" fill="#CDE3FF"/>
<path d="M965.983 888.657H863.227L837.863 839.479H941.269L965.983 888.657Z" fill="#E3F0FF"/>
<path d="M1068.74 888.657H965.983L941.27 839.479H1044.03L1068.74 888.657Z" fill="#E3F0FF"/>
<path d="M1172.14 888.657H1068.74L1044.02 839.479H1146.78L1172.14 888.657Z" fill="#E1EEFF"/>
<path d="M1274.9 888.657H1172.14L1146.78 839.479H1250.19L1274.9 888.657Z" fill="#DCEBFF"/>
<path d="M1377.66 888.657H1274.9L1250.19 839.479H1352.94L1377.66 888.657Z" fill="#CFDEFF"/>
<path d="M1481.06 888.657H1377.65L1352.94 839.479H1455.7L1481.06 888.657Z" fill="#CBDBFF"/>
<path d="M1583.82 888.657H1481.06L1455.7 839.479H1559.11L1583.82 888.657Z" fill="#CADAFF"/>
<path d="M1686.57 888.657H1583.81L1559.1 839.479H1661.86L1686.57 888.657Z" fill="#CADBFF"/>
<path d="M1789.98 888.657H1686.57L1661.86 839.479H1764.61L1789.98 888.657Z" fill="#C2D7FF"/>
<path d="M1892.73 888.657H1789.98L1764.61 839.479H1868.02L1892.73 888.657Z" fill="#B8CEFF"/>
<path d="M1933.05 839.479H1868.02L1892.73 888.657H1933.05V839.479Z" fill="#ACC5FF"/>
<path d="M-18 839.479H14.5176L-10.8461 790.302H-18V839.479Z" fill="#CDE7FF"/>
<path d="M117.272 839.479H14.5161L-10.8477 790.302H92.5583L117.272 839.479Z" fill="#C4E5FF"/>
<path d="M220.028 839.479H117.272L92.5586 790.302H195.314L220.028 839.479Z" fill="#DFF2FF"/>
<path d="M323.436 839.479H220.03L195.316 790.302H298.072L323.436 839.479Z" fill="#E8F5FF"/>
<path d="M426.19 839.479H323.434L298.07 790.302H401.476L426.19 839.479Z" fill="#D6E6FF"/>
<path d="M528.946 839.479H426.19L401.477 790.302H504.232L528.946 839.479Z" fill="#F0F9FF"/>
<path d="M632.354 839.479H528.948L504.234 790.302H606.99L632.354 839.479Z" fill="#ECF4FF"/>
<path d="M735.108 839.479H632.352L606.988 790.302H710.394L735.108 839.479Z" fill="#D8E9FF"/>
<path d="M837.863 839.479H735.108L710.395 790.302H813.15L837.863 839.479Z" fill="#CDE5FF"/>
<path d="M941.268 839.479H837.862L813.148 790.302H915.904L941.268 839.479Z" fill="#DBECFF"/>
<path d="M1044.03 839.479H941.27L915.906 790.302H1019.31L1044.03 839.479Z" fill="#E2EFFF"/>
<path d="M1146.78 839.479H1044.03L1019.31 790.302H1122.07L1146.78 839.479Z" fill="#E0EDFF"/>
<path d="M1250.19 839.479H1146.78L1122.07 790.302H1224.82L1250.19 839.479Z" fill="#DDE6FF"/>
<path d="M1352.94 839.479H1250.19L1224.82 790.302H1328.23L1352.94 839.479Z" fill="#D1DEFF"/>
<path d="M1455.7 839.479H1352.94L1328.23 790.302H1430.98L1455.7 839.479Z" fill="#A7C2FF"/>
<path d="M1559.1 839.479H1455.7L1430.98 790.302H1533.74L1559.1 839.479Z" fill="#B4CCFF"/>
<path d="M1661.86 839.479H1559.1L1533.74 790.302H1637.14L1661.86 839.479Z" fill="#C0D4FF"/>
<path d="M1764.61 839.479H1661.86L1637.14 790.302H1739.9L1764.61 839.479Z" fill="#A4C1FF"/>
<path d="M1868.02 839.479H1764.62L1739.9 790.302H1842.66L1868.02 839.479Z" fill="#ADC7FF"/>
<path d="M1933.06 790.302H1842.66L1868.02 839.479H1933.06V790.302Z" fill="#A6C1FF"/>
<path d="M67.1961 741.125H-18V775.666L-10.8461 790.302H92.5598L67.1961 741.125Z" fill="#C2E6FF"/>
<path d="M195.315 790.302H92.559L67.1953 741.125H170.601L195.315 790.302Z" fill="#C4E5FF"/>
<path d="M298.071 790.302H195.315L170.602 741.125H273.357L298.071 790.302Z" fill="#D4EBFF"/>
<path d="M401.479 790.302H298.073L273.359 741.125H376.115L401.479 790.302Z" fill="#EAF7FF"/>
<path d="M504.233 790.302H401.477L376.113 741.125H479.519L504.233 790.302Z" fill="#F4FAFF"/>
<path d="M606.988 790.302H504.233L479.52 741.125H582.275L606.988 790.302Z" fill="#DCEBFF"/>
<path d="M710.393 790.302H606.987L582.273 741.125H685.029L710.393 790.302Z" fill="#DFECFF"/>
<path d="M813.151 790.302H710.395L685.031 741.125H788.437L813.151 790.302Z" fill="#D5E7FF"/>
<path d="M915.906 790.302H813.151L788.438 741.125H891.193L915.906 790.302Z" fill="#DFEFFF"/>
<path d="M1019.31 790.302H915.905L891.191 741.125H993.947L1019.31 790.302Z" fill="#DEEBFF"/>
<path d="M1122.07 790.302H1019.31L993.949 741.125H1097.36L1122.07 790.302Z" fill="#D1E1FF"/>
<path d="M1224.82 790.302H1122.07L1097.36 741.125H1200.11L1224.82 790.302Z" fill="#C6D9FF"/>
<path d="M1328.23 790.302H1224.82L1200.11 741.125H1302.86L1328.23 790.302Z" fill="#A4C5FF"/>
<path d="M1430.98 790.302H1328.23L1302.86 741.125H1406.27L1430.98 790.302Z" fill="#A4C6FF"/>
<path d="M1533.74 790.302H1430.98L1406.27 741.125H1509.03L1533.74 790.302Z" fill="#A8C6FF"/>
<path d="M1637.15 790.302H1533.74L1509.03 741.125H1611.78L1637.15 790.302Z" fill="#B0CBFF"/>
<path d="M1739.9 790.302H1637.15L1611.78 741.125H1715.19L1739.9 790.302Z" fill="#9ABCFF"/>
<path d="M1842.66 790.302H1739.9L1715.19 741.125H1817.94L1842.66 790.302Z" fill="#A2BFFF"/>
<path d="M1933.05 765.128L1920.7 741.125H1817.94L1842.65 790.302H1933.05V765.128Z" fill="#A4C2FF"/>
<path d="M-18 741.125H67.1961L42.4827 691.948H-18V741.125Z" fill="#C3E5FF"/>
<path d="M170.604 741.125H67.1977L42.4844 691.948H145.24L170.604 741.125Z" fill="#B3DFFF"/>
<path d="M273.358 741.125H170.602L145.238 691.948H247.994L273.358 741.125Z" fill="#E1F1FF"/>
<path d="M376.111 741.125H273.356L247.992 691.948H351.398L376.111 741.125Z" fill="#DFF2FF"/>
<path d="M479.518 741.125H376.112L351.398 691.948H454.154L479.518 741.125Z" fill="#F1F7FF"/>
<path d="M582.276 741.125H479.52L454.156 691.948H556.912L582.276 741.125Z" fill="#E3F0FF"/>
<path d="M685.03 741.125H582.274L556.91 691.948H660.316L685.03 741.125Z" fill="#D6E6FF"/>
<path d="M788.436 741.125H685.03L660.316 691.948H763.072L788.436 741.125Z" fill="#CADCFF"/>
<path d="M891.193 741.125H788.438L763.074 691.948H865.83L891.193 741.125Z" fill="#D2E5FF"/>
<path d="M993.947 741.125H891.192L865.828 691.948H969.234L993.947 741.125Z" fill="#C9DBFF"/>
<path d="M1097.35 741.125H993.948L969.234 691.948H1071.99L1097.35 741.125Z" fill="#C4D6FF"/>
<path d="M1200.11 741.125H1097.35L1071.99 691.948H1174.74L1200.11 741.125Z" fill="#C6D9FF"/>
<path d="M1302.87 741.125H1200.11L1174.75 691.948H1278.15L1302.87 741.125Z" fill="#B0CDFF"/>
<path d="M1406.27 741.125H1302.87L1278.15 691.948H1380.91L1406.27 741.125Z" fill="#97BBFF"/>
<path d="M1509.03 741.125H1406.27L1380.91 691.948H1483.66L1509.03 741.125Z" fill="#AEC8FF"/>
<path d="M1611.78 741.125H1509.03L1483.66 691.948H1587.07L1611.78 741.125Z" fill="#AFC9FF"/>
<path d="M1715.19 741.125H1611.78L1587.07 691.948H1689.83L1715.19 741.125Z" fill="#95B6FF"/>
<path d="M1817.94 741.125H1715.19L1689.82 691.948H1792.58L1817.94 741.125Z" fill="#A3C0FF"/>
<path d="M1920.7 741.125H1817.94L1792.58 691.948H1895.98L1920.7 741.125Z" fill="#AAC7FF"/>
<path d="M1933.05 691.948H1895.98L1920.7 741.125H1933.05V691.948Z" fill="#A6C6FF"/>
<path d="M-18 691.948H42.4827L17.119 642.771H-18V691.948Z" fill="#CEEBFF"/>
<path d="M145.237 691.948H42.4809L17.1172 642.771H120.523L145.237 691.948Z" fill="#BCE1FF"/>
<path d="M247.992 691.948H145.237L120.523 642.771H223.279L247.992 691.948Z" fill="#BAE5FF"/>
<path d="M351.401 691.948H247.995L223.281 642.771H326.037L351.401 691.948Z" fill="#DAEEFF"/>
<path d="M454.155 691.948H351.399L326.035 642.771H429.441L454.155 691.948Z" fill="#CFE9FF"/>
<path d="M556.91 691.948H454.155L429.441 642.771H532.197L556.91 691.948Z" fill="#E0EFFF"/>
<path d="M660.319 691.948H556.913L532.199 642.771H634.955L660.319 691.948Z" fill="#E1EEFF"/>
<path d="M763.072 691.948H660.317L634.953 642.771H738.359L763.072 691.948Z" fill="#D7E8FF"/>
<path d="M865.828 691.948H763.073L738.359 642.771H841.115L865.828 691.948Z" fill="#C0D7FF"/>
<path d="M969.233 691.948H865.827L841.113 642.771H943.869L969.233 691.948Z" fill="#C1D7FF"/>
<path d="M1071.99 691.948H969.235L943.871 642.771H1047.28L1071.99 691.948Z" fill="#C9DEFF"/>
<path d="M1174.75 691.948H1071.99L1047.28 642.771H1150.03L1174.75 691.948Z" fill="#CADBFF"/>
<path d="M1278.15 691.948H1174.74L1150.03 642.771H1252.79L1278.15 691.948Z" fill="#B3CFFF"/>
<path d="M1380.91 691.948H1278.15L1252.79 642.771H1356.19L1380.91 691.948Z" fill="#9FC1FF"/>
<path d="M1483.66 691.948H1380.91L1356.2 642.771H1458.95L1483.66 691.948Z" fill="#C5D7FF"/>
<path d="M1587.07 691.948H1483.66L1458.95 642.771H1561.7L1587.07 691.948Z" fill="#BDD1FF"/>
<path d="M1689.82 691.948H1587.07L1561.7 642.771H1665.11L1689.82 691.948Z" fill="#A3C2FF"/>
<path d="M1792.58 691.948H1689.82L1665.11 642.771H1767.86L1792.58 691.948Z" fill="#A9C5FF"/>
<path d="M1895.99 691.948H1792.58L1767.87 642.771H1870.62L1895.99 691.948Z" fill="#8BB2FF"/>
<path d="M1933.05 642.771H1870.62L1895.98 691.948H1933.05V642.771Z" fill="#8FB1FF"/>
<path d="M-18 642.771H17.119L-7.59437 593.594H-18V642.771Z" fill="#CBE8FF"/>
<path d="M120.526 642.771H17.1196L-7.59375 593.594H95.1619L120.526 642.771Z" fill="#BEE4FF"/>
<path d="M223.279 642.771H120.524L95.1602 593.594H198.566L223.279 642.771Z" fill="#BCE7FF"/>
<path d="M326.035 642.771H223.28L198.566 593.594H301.322L326.035 642.771Z" fill="#C6E6FF"/>
<path d="M429.444 642.771H326.038L301.324 593.594H404.08L429.444 642.771Z" fill="#C0E4FF"/>
<path d="M532.197 642.771H429.442L404.078 593.594H507.484L532.197 642.771Z" fill="#D2E4FF"/>
<path d="M634.953 642.771H532.198L507.484 593.594H610.24L634.953 642.771Z" fill="#DEEBFF"/>
<path d="M738.358 642.771H634.952L610.238 593.594H712.994L738.358 642.771Z" fill="#C0DDFF"/>
<path d="M841.115 642.771H738.36L712.996 593.594H816.402L841.115 642.771Z" fill="#B5D5FF"/>
<path d="M943.871 642.771H841.116L816.402 593.594H919.158L943.871 642.771Z" fill="#C1D6FF"/>
<path d="M1047.28 642.771H943.87L919.156 593.594H1021.91L1047.28 642.771Z" fill="#C5D9FF"/>
<path d="M1150.03 642.771H1047.28L1021.91 593.594H1125.32L1150.03 642.771Z" fill="#CFDEFF"/>
<path d="M1252.79 642.771H1150.03L1125.32 593.594H1228.08L1252.79 642.771Z" fill="#B2CAFF"/>
<path d="M1356.19 642.771H1252.79L1228.07 593.594H1330.83L1356.19 642.771Z" fill="#B2C9FF"/>
<path d="M1458.95 642.771H1356.19L1330.83 593.594H1434.23L1458.95 642.771Z" fill="#BCD1FF"/>
<path d="M1561.7 642.771H1458.95L1434.23 593.594H1536.99L1561.7 642.771Z" fill="#B5CEFF"/>
<path d="M1665.11 642.771H1561.71L1536.99 593.594H1639.75L1665.11 642.771Z" fill="#A2BFFF"/>
<path d="M1767.87 642.771H1665.11L1639.75 593.594H1743.15L1767.87 642.771Z" fill="#9ABDFF"/>
<path d="M1870.62 642.771H1767.87L1743.15 593.594H1845.91L1870.62 642.771Z" fill="#84ACFF"/>
<path d="M1933.06 593.594H1845.91L1870.62 642.771H1933.06V593.594Z" fill="#7DA6FF"/>
<path d="M70.4479 544.417H-18V573.104L-7.59437 593.594H95.1612L70.4479 544.417Z" fill="#AEE1FF"/>
<path d="M198.569 593.594H95.1626L70.4492 544.417H173.205L198.569 593.594Z" fill="#B1DBFF"/>
<path d="M301.322 593.594H198.567L173.203 544.417H276.609L301.322 593.594Z" fill="#C9E3FF"/>
<path d="M404.078 593.594H301.323L276.609 544.417H379.365L404.078 593.594Z" fill="#C6E8FF"/>
<path d="M507.483 593.594H404.077L379.363 544.417H482.119L507.483 593.594Z" fill="#C6E6FF"/>
<path d="M610.24 593.594H507.485L482.121 544.417H585.527L610.24 593.594Z" fill="#C2DFFF"/>
<path d="M712.996 593.594H610.241L585.527 544.417H688.283L712.996 593.594Z" fill="#B4D6FF"/>
<path d="M816.401 593.594H712.995L688.281 544.417H791.037L816.401 593.594Z" fill="#B8D4FF"/>
<path d="M919.158 593.594H816.403L791.039 544.417H894.445L919.158 593.594Z" fill="#C1D7FF"/>
<path d="M1021.91 593.594H919.159L894.445 544.417H997.201L1021.91 593.594Z" fill="#C2D6FF"/>
<path d="M1125.32 593.594H1021.91L997.199 544.417H1099.95L1125.32 593.594Z" fill="#CFDEFF"/>
<path d="M1228.07 593.594H1125.32L1099.95 544.417H1203.36L1228.07 593.594Z" fill="#B4C9FF"/>
<path d="M1330.83 593.594H1228.07L1203.36 544.417H1306.11L1330.83 593.594Z" fill="#A9C6FF"/>
<path d="M1434.24 593.594H1330.83L1306.12 544.417H1408.87L1434.24 593.594Z" fill="#A4C1FF"/>
<path d="M1536.99 593.594H1434.23L1408.87 544.417H1512.28L1536.99 593.594Z" fill="#ADC8FF"/>
<path d="M1639.75 593.594H1536.99L1512.28 544.417H1615.03L1639.75 593.594Z" fill="#8FB5FF"/>
<path d="M1743.15 593.594H1639.75L1615.04 544.417H1717.79L1743.15 593.594Z" fill="#84ABFF"/>
<path d="M1845.91 593.594H1743.15L1717.79 544.417H1821.2L1845.91 593.594Z" fill="#6195FF"/>
<path d="M1933.06 562.566L1923.95 544.417H1821.2L1845.91 593.594H1933.06V562.566Z" fill="#6A9DFF"/>
<path d="M-18 544.416H70.4479L45.7345 495.239H-18V544.416Z" fill="#A9DBFF"/>
<path d="M173.203 544.416H70.4477L45.7344 495.239H148.49L173.203 544.416Z" fill="#9ED5FF"/>
<path d="M276.608 544.416H173.202L148.488 495.239H251.244L276.608 544.416Z" fill="#87D0FF"/>
<path d="M379.365 544.416H276.61L251.246 495.239H354.652L379.365 544.416Z" fill="#A0D7FF"/>
<path d="M482.121 544.416H379.366L354.652 495.239H457.408L482.121 544.416Z" fill="#B7DDFF"/>
<path d="M585.526 544.416H482.12L457.406 495.239H560.162L585.526 544.416Z" fill="#BADBFF"/>
<path d="M688.283 544.416H585.528L560.164 495.239H663.57L688.283 544.416Z" fill="#A4CFFF"/>
<path d="M791.039 544.416H688.284L663.57 495.239H766.326L791.039 544.416Z" fill="#BBD1FF"/>
<path d="M894.443 544.416H791.038L766.324 495.239H869.08L894.443 544.416Z" fill="#C0D7FF"/>
<path d="M997.201 544.416H894.446L869.082 495.239H972.488L997.201 544.416Z" fill="#BED5FF"/>
<path d="M1099.95 544.416H997.198L972.484 495.239H1075.24L1099.95 544.416Z" fill="#C3D6FF"/>
<path d="M1203.36 544.416H1099.96L1075.24 495.239H1178L1203.36 544.416Z" fill="#ADC8FF"/>
<path d="M1306.12 544.416H1203.36L1178 495.239H1281.4L1306.12 544.416Z" fill="#9ABBFF"/>
<path d="M1408.87 544.416H1306.12L1281.4 495.239H1384.16L1408.87 544.416Z" fill="#8DB2FF"/>
<path d="M1512.28 544.416H1408.87L1384.16 495.239H1486.92L1512.28 544.416Z" fill="#80ADFF"/>
<path d="M1615.03 544.416H1512.28L1486.91 495.239H1590.32L1615.03 544.416Z" fill="#83ADFF"/>
<path d="M1717.79 544.416H1615.03L1590.32 495.239H1693.08L1717.79 544.416Z" fill="#85AFFF"/>
<path d="M1821.19 544.416H1717.79L1693.07 495.239H1795.83L1821.19 544.416Z" fill="#5F97FF"/>
<path d="M1923.95 544.416H1821.2L1795.83 495.239H1899.24L1923.95 544.416Z" fill="#4984FF"/>
<path d="M1933.06 495.239H1899.24L1923.95 544.416H1933.06V495.239Z" fill="#3584FF"/>
<path d="M-18 495.24H45.7345L20.3708 446.062H-18V495.24Z" fill="#8FD1FF"/>
<path d="M148.49 495.24H45.7348L20.3711 446.062H123.777L148.49 495.24Z" fill="#69C3FF"/>
<path d="M251.246 495.24H148.491L123.777 446.062H226.533L251.246 495.24Z" fill="#9DD7FF"/>
<path d="M354.651 495.24H251.245L226.531 446.062H329.287L354.651 495.24Z" fill="#9FD4FF"/>
<path d="M457.408 495.24H354.653L329.289 446.062H432.695L457.408 495.24Z" fill="#B0DBFF"/>
<path d="M560.164 495.24H457.409L432.695 446.062H535.451L560.164 495.24Z" fill="#C7E5FF"/>
<path d="M663.568 495.24H560.163L535.449 446.062H638.205L663.568 495.24Z" fill="#BED9FF"/>
<path d="M766.326 495.24H663.571L638.207 446.062H741.613L766.326 495.24Z" fill="#C1D8FF"/>
<path d="M869.078 495.24H766.323L741.609 446.062H844.365L869.078 495.24Z" fill="#B7D2FF"/>
<path d="M972.486 495.24H869.081L844.367 446.062H947.123L972.486 495.24Z" fill="#A7C5FF"/>
<path d="M1075.24 495.24H972.485L947.121 446.062H1050.53L1075.24 495.24Z" fill="#ACC8FF"/>
<path d="M1178 495.24H1075.24L1050.53 446.062H1153.28L1178 495.24Z" fill="#A4C0FF"/>
<path d="M1281.4 495.24H1178L1153.29 446.062H1256.04L1281.4 495.24Z" fill="#93B6FF"/>
<path d="M1384.16 495.24H1281.4L1256.04 446.062H1359.45L1384.16 495.24Z" fill="#83ABFF"/>
<path d="M1486.91 495.24H1384.16L1359.45 446.062H1462.2L1486.91 495.24Z" fill="#8BB5FF"/>
<path d="M1590.32 495.24H1486.91L1462.2 446.062H1564.95L1590.32 495.24Z" fill="#6FA3FF"/>
<path d="M1693.08 495.24H1590.32L1564.96 446.062H1668.36L1693.08 495.24Z" fill="#5C95FF"/>
<path d="M1795.83 495.24H1693.08L1668.36 446.062H1771.12L1795.83 495.24Z" fill="#317AFF"/>
<path d="M1899.24 495.24H1795.83L1771.12 446.062H1873.87L1899.24 495.24Z" fill="#4089FF"/>
<path d="M1933.06 446.062H1873.88L1899.24 495.24H1933.06V446.062Z" fill="#3386FF"/>
<path d="M-18 446.063H20.3708L-4.34261 396.886H-18V446.063Z" fill="#3FB1FF"/>
<path d="M123.776 446.063H20.3696L-4.34375 396.886H98.4119L123.776 446.063Z" fill="#62BEFF"/>
<path d="M226.533 446.063H123.778L98.4141 396.886H201.17L226.533 446.063Z" fill="#7CCAFF"/>
<path d="M329.287 446.063H226.532L201.168 396.886H304.574L329.287 446.063Z" fill="#A7D8FF"/>
<path d="M432.694 446.063H329.288L304.574 396.886H407.33L432.694 446.063Z" fill="#B5DBFF"/>
<path d="M535.451 446.063H432.696L407.332 396.886H510.088L535.451 446.063Z" fill="#B6D9FF"/>
<path d="M638.205 446.063H535.45L510.086 396.886H613.492L638.205 446.063Z" fill="#CEE0FF"/>
<path d="M741.612 446.063H638.206L613.492 396.886H716.248L741.612 446.063Z" fill="#BCD4FF"/>
<path d="M844.365 446.063H741.61L716.246 396.886H819.002L844.365 446.063Z" fill="#A0C2FF"/>
<path d="M947.123 446.063H844.368L819.004 396.886H922.41L947.123 446.063Z" fill="#9DBFFF"/>
<path d="M1050.53 446.063H947.124L922.41 396.886H1025.17L1050.53 446.063Z" fill="#A6C4FF"/>
<path d="M1153.28 446.063H1050.53L1025.16 396.886H1127.92L1153.28 446.063Z" fill="#9AB7FF"/>
<path d="M1256.04 446.063H1153.29L1127.92 396.886H1231.33L1256.04 446.063Z" fill="#8EAEFF"/>
<path d="M1359.44 446.063H1256.04L1231.32 396.886H1334.08L1359.44 446.063Z" fill="#93B4FF"/>
<path d="M1462.2 446.063H1359.45L1334.08 396.886H1436.84L1462.2 446.063Z" fill="#96B7FF"/>
<path d="M1564.96 446.063H1462.2L1436.84 396.886H1540.24L1564.96 446.063Z" fill="#4487FF"/>
<path d="M1668.36 446.063H1564.96L1540.24 396.886H1643L1668.36 446.063Z" fill="#1969FF"/>
<path d="M1771.12 446.063H1668.36L1643 396.886H1745.76L1771.12 446.063Z" fill="#357AFF"/>
<path d="M1873.87 446.063H1771.12L1745.75 396.886H1849.16L1873.87 446.063Z" fill="#3385FF"/>
<path d="M1933.06 396.886H1849.16L1873.87 446.063H1933.06V396.886Z" fill="#1B7BFF"/>
<path d="M73.6996 347.708H-18V370.54L-4.34261 396.885H98.413L73.6996 347.708Z" fill="#70C5FF"/>
<path d="M201.168 396.885H98.4126L73.6992 347.708H176.455L201.168 396.885Z" fill="#8DD0FF"/>
<path d="M304.576 396.885H201.17L176.457 347.708H279.213L304.576 396.885Z" fill="#A3D5FF"/>
<path d="M407.33 396.885H304.575L279.211 347.708H382.617L407.33 396.885Z" fill="#9CD5FF"/>
<path d="M510.086 396.885H407.331L382.617 347.708H485.373L510.086 396.885Z" fill="#C3DEFF"/>
<path d="M613.49 396.885H510.084L485.371 347.708H588.127L613.49 396.885Z" fill="#C4DFFF"/>
<path d="M716.248 396.885H613.493L588.129 347.708H691.535L716.248 396.885Z" fill="#ACCEFF"/>
<path d="M819.004 396.885H716.249L691.535 347.708H794.291L819.004 396.885Z" fill="#90BCFF"/>
<path d="M922.408 396.885H819.002L794.289 347.708H897.045L922.408 396.885Z" fill="#7BABFF"/>
<path d="M1025.17 396.885H922.411L897.047 347.708H1000.45L1025.17 396.885Z" fill="#8FB4FF"/>
<path d="M1127.92 396.885H1025.17L1000.45 347.708H1103.21L1127.92 396.885Z" fill="#97B4FF"/>
<path d="M1231.33 396.885H1127.92L1103.21 347.708H1205.96L1231.33 396.885Z" fill="#88AEFF"/>
<path d="M1334.08 396.885H1231.32L1205.96 347.708H1309.37L1334.08 396.885Z" fill="#98B7FF"/>
<path d="M1436.84 396.885H1334.08L1309.37 347.708H1412.12L1436.84 396.885Z" fill="#8BB3FF"/>
<path d="M1540.24 396.885H1436.84L1412.12 347.708H1514.88L1540.24 396.885Z" fill="#5D92FF"/>
<path d="M1643 396.885H1540.24L1514.88 347.708H1618.28L1643 396.885Z" fill="#2C6EFF"/>
<path d="M1745.75 396.885H1643L1618.29 347.708H1721.04L1745.75 396.885Z" fill="#1F7AFF"/>
<path d="M1849.16 396.885H1745.76L1721.04 347.708H1823.8L1849.16 396.885Z" fill="#2182FF"/>
<path d="M1933.06 359.417L1927.2 347.708H1823.8L1849.16 396.885H1933.06V359.417Z" fill="#1877FF"/>
<path d="M-18 347.708H73.6996L48.3359 298.531H-18V347.708Z" fill="#78C7FF"/>
<path d="M176.455 347.708H73.6997L48.3359 298.531H151.742L176.455 347.708Z" fill="#72C4FF"/>
<path d="M279.211 347.708H176.456L151.742 298.531H254.498L279.211 347.708Z" fill="#A7D3FF"/>
<path d="M382.615 347.708H279.209L254.496 298.531H357.252L382.615 347.708Z" fill="#BBDCFF"/>
<path d="M485.373 347.708H382.618L357.254 298.531H460.66L485.373 347.708Z" fill="#B7DDFF"/>
<path d="M588.129 347.708H485.374L460.66 298.531H563.416L588.129 347.708Z" fill="#B8DBFF"/>
<path d="M691.533 347.708H588.127L563.414 298.531H666.17L691.533 347.708Z" fill="#A1CBFF"/>
<path d="M794.291 347.708H691.536L666.172 298.531H769.578L794.291 347.708Z" fill="#84B7FF"/>
<path d="M897.047 347.708H794.292L769.578 298.531H872.334L897.047 347.708Z" fill="#71ACFF"/>
<path d="M1000.45 347.708H897.045L872.332 298.531H975.088L1000.45 347.708Z" fill="#7FACFF"/>
<path d="M1103.21 347.708H1000.45L975.086 298.531H1078.49L1103.21 347.708Z" fill="#87AFFF"/>
<path d="M1205.96 347.708H1103.21L1078.49 298.531H1181.25L1205.96 347.708Z" fill="#86B0FF"/>
<path d="M1309.37 347.708H1205.96L1181.25 298.531H1284.01L1309.37 347.708Z" fill="#8AB0FF"/>
<path d="M1412.12 347.708H1309.37L1284 298.531H1387.41L1412.12 347.708Z" fill="#6A9CFF"/>
<path d="M1514.88 347.708H1412.12L1387.41 298.531H1490.17L1514.88 347.708Z" fill="#3C7BFF"/>
<path d="M1618.29 347.708H1514.88L1490.17 298.531H1592.92L1618.29 347.708Z" fill="#0364FF"/>
<path d="M1721.04 347.708H1618.29L1592.92 298.531H1696.33L1721.04 347.708Z" fill="#2F80FF"/>
<path d="M1823.8 347.708H1721.04L1696.33 298.531H1799.08L1823.8 347.708Z" fill="#1A7AFF"/>
<path d="M1927.2 347.708H1823.8L1799.08 298.531H1901.84L1927.2 347.708Z" fill="#007AFF"/>
<path d="M1933.06 298.531H1901.84L1927.2 347.708H1933.06V298.531Z" fill="#2A81FF"/>
<path d="M-18 298.532H48.3359L23.6225 249.354H-18V298.532Z" fill="#83CEFF"/>
<path d="M151.74 298.532H48.3345L23.6211 249.354H126.377L151.74 298.532Z" fill="#61BDFF"/>
<path d="M254.498 298.532H151.743L126.379 249.354H229.785L254.498 298.532Z" fill="#89CEFF"/>
<path d="M357.254 298.532H254.499L229.785 249.354H332.541L357.254 298.532Z" fill="#AAD8FF"/>
<path d="M460.658 298.532H357.252L332.539 249.354H435.295L460.658 298.532Z" fill="#C0E0FF"/>
<path d="M563.416 298.532H460.661L435.297 249.354H538.703L563.416 298.532Z" fill="#ACD6FF"/>
<path d="M666.172 298.532H563.416L538.703 249.354H641.459L666.172 298.532Z" fill="#9BCAFF"/>
<path d="M769.576 298.532H666.17L641.457 249.354H744.213L769.576 298.532Z" fill="#6DADFF"/>
<path d="M872.33 298.532H769.575L744.211 249.354H847.617L872.33 298.532Z" fill="#5DA2FF"/>
<path d="M975.086 298.532H872.331L847.617 249.354H950.373L975.086 298.532Z" fill="#6FA9FF"/>
<path d="M1078.49 298.532H975.088L950.375 249.354H1053.13L1078.49 298.532Z" fill="#729FFF"/>
<path d="M1181.25 298.532H1078.49L1053.13 249.354H1156.53L1181.25 298.532Z" fill="#88B2FF"/>
<path d="M1284 298.532H1181.25L1156.54 249.354H1259.29L1284 298.532Z" fill="#6D9EFF"/>
<path d="M1387.41 298.532H1284.01L1259.29 249.354H1362.05L1387.41 298.532Z" fill="#72A2FF"/>
<path d="M1490.17 298.532H1387.41L1362.05 249.354H1465.45L1490.17 298.532Z" fill="#2872FF"/>
<path d="M1592.92 298.532H1490.17L1465.45 249.354H1568.21L1592.92 298.532Z" fill="#2071FF"/>
<path d="M1696.33 298.532H1592.92L1568.21 249.354H1670.96L1696.33 298.532Z" fill="#2677FF"/>
<path d="M1799.08 298.532H1696.33L1670.96 249.354H1774.37L1799.08 298.532Z" fill="#137CFF"/>
<path d="M1901.84 298.532H1799.08L1774.37 249.354H1877.13L1901.84 298.532Z" fill="#1B7CFF"/>
<path d="M1933.06 249.354H1877.12L1901.84 298.532H1933.06V249.354Z" fill="#2A83FF"/>
<path d="M-18 249.354H23.6225L-1.09085 200.177H-18V249.354Z" fill="#7BCAFF"/>
<path d="M126.379 249.354H23.6235L-1.08984 200.177H101.666L126.379 249.354Z" fill="#6DC4FF"/>
<path d="M229.783 249.354H126.377L101.664 200.177H204.42L229.783 249.354Z" fill="#87CBFF"/>
<path d="M332.541 249.354H229.786L204.422 200.177H307.828L332.541 249.354Z" fill="#93D0FF"/>
<path d="M435.297 249.354H332.541L307.828 200.177H410.584L435.297 249.354Z" fill="#A3D3FF"/>
<path d="M538.701 249.354H435.295L410.582 200.177H513.338L538.701 249.354Z" fill="#A9D6FF"/>
<path d="M641.455 249.354H538.7L513.336 200.177H616.742L641.455 249.354Z" fill="#7DBBFF"/>
<path d="M744.211 249.354H641.456L616.742 200.177H719.498L744.211 249.354Z" fill="#58A8FF"/>
<path d="M847.619 249.354H744.213L719.5 200.177H822.256L847.619 249.354Z" fill="#5CA3FF"/>
<path d="M950.373 249.354H847.618L822.254 200.177H925.66L950.373 249.354Z" fill="#71A7FF"/>
<path d="M1053.13 249.354H950.374L925.66 200.177H1028.42L1053.13 249.354Z" fill="#6EA1FF"/>
<path d="M1156.54 249.354H1053.13L1028.42 200.177H1131.17L1156.54 249.354Z" fill="#69A0FF"/>
<path d="M1259.29 249.354H1156.54L1131.17 200.177H1234.58L1259.29 249.354Z" fill="#7DAAFF"/>
<path d="M1362.05 249.354H1259.29L1234.58 200.177H1337.33L1362.05 249.354Z" fill="#518CFF"/>
<path d="M1465.45 249.354H1362.05L1337.33 200.177H1440.09L1465.45 249.354Z" fill="#3B7FFF"/>
<path d="M1568.21 249.354H1465.45L1440.09 200.177H1543.5L1568.21 249.354Z" fill="#0C6BFF"/>
<path d="M1670.97 249.354H1568.21L1543.5 200.177H1646.25L1670.97 249.354Z" fill="#347EFF"/>
<path d="M1774.37 249.354H1670.96L1646.25 200.177H1749.01L1774.37 249.354Z" fill="#1F77FF"/>
<path d="M1877.13 249.354H1774.37L1749.01 200.177H1852.41L1877.13 249.354Z" fill="#3185FF"/>
<path d="M1933.06 200.177H1852.41L1877.13 249.354H1933.06V200.177Z" fill="#0F75FF"/>
<path d="M76.9514 151H-18V167.392L-1.09085 200.177H101.665L76.9514 151Z" fill="#6BC4FF"/>
<path d="M204.422 200.177H101.666L76.9531 151H179.709L204.422 200.177Z" fill="#75C9FF"/>
<path d="M307.826 200.177H204.42L179.707 151H282.463L307.826 200.177Z" fill="#81CDFF"/>
<path d="M410.58 200.177H307.825L282.461 151H385.867L410.58 200.177Z" fill="#8ACDFF"/>
<path d="M513.336 200.177H410.581L385.867 151H488.623L513.336 200.177Z" fill="#89CEFF"/>
<path d="M616.744 200.177H513.338L488.625 151H591.381L616.744 200.177Z" fill="#77BDFF"/>
<path d="M719.498 200.177H616.743L591.379 151H694.785L719.498 200.177Z" fill="#52A5FF"/>
<path d="M822.254 200.177H719.499L694.785 151H797.541L822.254 200.177Z" fill="#66A2FF"/>
<path d="M925.662 200.177H822.256L797.543 151H900.299L925.662 200.177Z" fill="#669CFF"/>
<path d="M1028.42 200.177H925.661L900.297 151H1003.7L1028.42 200.177Z" fill="#4A90FF"/>
<path d="M1131.17 200.177H1028.42L1003.7 151H1106.46L1131.17 200.177Z" fill="#5792FF"/>
<path d="M1234.58 200.177H1131.17L1106.46 151H1209.21L1234.58 200.177Z" fill="#5C95FF"/>
<path d="M1337.33 200.177H1234.58L1209.21 151H1312.62L1337.33 200.177Z" fill="#88ACFF"/>
<path d="M1440.09 200.177H1337.33L1312.62 151H1415.38L1440.09 200.177Z" fill="#4B86FF"/>
<path d="M1543.49 200.177H1440.09L1415.38 151H1518.13L1543.49 200.177Z" fill="#0E62FF"/>
<path d="M1646.25 200.177H1543.5L1518.13 151H1621.54L1646.25 200.177Z" fill="#2E72FF"/>
<path d="M1749.01 200.177H1646.25L1621.54 151H1724.29L1749.01 200.177Z" fill="#3779FF"/>
<path d="M1852.41 200.177H1749.01L1724.29 151H1827.05L1852.41 200.177Z" fill="#3F83FF"/>
<path d="M1933.05 156.854L1930.45 151H1827.05L1852.41 200.177H1933.05V156.854Z" fill="#0675FF"/>
</g>
<g style="mix-blend-mode:screen">
<path d="M1933.05 151H-13.9453V1380.75H1933.05V151Z" fill="url(#paint1_radial_181_3065)"/>
</g>
</g>
</g>
<mask id="mask1_181_3065" style="mask-type:alpha" maskUnits="userSpaceOnUse" x="0" y="0" width="1920" height="244">
<rect width="1920" height="244" fill="url(#paint2_linear_181_3065)"/>
</mask>
<g mask="url(#mask1_181_3065)">
<rect width="1920" height="717" fill="#0A76FF"/>
</g>
<defs>
<linearGradient id="paint0_linear_181_3065" x1="959.5" y1="151" x2="959.5" y2="1011" gradientUnits="userSpaceOnUse">
<stop offset="0.8" stop-color="#D9D9D9"/>
<stop offset="1" stop-color="#D9D9D9" stop-opacity="0"/>
</linearGradient>
<radialGradient id="paint1_radial_181_3065" cx="0" cy="0" r="1" gradientUnits="userSpaceOnUse" gradientTransform="translate(987.461 1650.26) rotate(-180) scale(1752.3 1633.81)">
<stop stop-color="white" stop-opacity="0"/>
<stop offset="0.13" stop-color="#C6D3DC" stop-opacity="0.21"/>
<stop offset="0.36" stop-color="#7090A7" stop-opacity="0.53"/>
<stop offset="0.59" stop-color="#325F80" stop-opacity="0.76"/>
<stop offset="0.81" stop-color="#0C4269" stop-opacity="0.9"/>
<stop offset="1" stop-color="#003962" stop-opacity="0.95"/>
</radialGradient>
<linearGradient id="paint2_linear_181_3065" x1="960" y1="0" x2="960" y2="337.105" gradientUnits="userSpaceOnUse">
<stop offset="0.47" stop-color="#0A76FF"/>
<stop offset="0.71" stop-color="#0A76FF" stop-opacity="0"/>
</linearGradient>
<clipPath id="clip0_181_3065">
<rect width="1947" height="860" fill="white" transform="translate(-14 151)"/>
</clipPath>
</defs>
</svg>
