<svg width="122" height="122" viewBox="0 0 122 122" fill="none" xmlns="http://www.w3.org/2000/svg">
<path d="M61 61C77.8447 61 91.5 47.3447 91.5 30.5C91.5 13.6553 77.8447 0 61 0C44.1553 0 30.5 13.6553 30.5 30.5C30.5 47.3447 44.1553 61 61 61ZM81.3333 30.5C81.3333 41.7298 72.2298 50.8333 61 50.8333C49.7702 50.8333 40.6667 41.7298 40.6667 30.5C40.6667 19.2702 49.7702 10.1667 61 10.1667C72.2298 10.1667 81.3333 19.2702 81.3333 30.5Z" fill="#D9D9D9"/>
<path d="M122 111.833C122 122 111.833 122 111.833 122L10.1667 122C10.1667 122 0 122 0 111.833C0 101.667 10.1667 71.1667 61 71.1667C111.833 71.1667 122 101.667 122 111.833ZM111.833 111.798C111.819 109.289 110.27 101.773 103.373 94.8764C96.7422 88.2451 84.2725 81.3333 60.9999 81.3333C37.7273 81.3333 25.2576 88.2451 18.6263 94.8764C11.7298 101.773 10.1811 109.289 10.1667 111.798L111.833 111.798Z" fill="#D9D9D9"/>
</svg>
